<?xml version="1.0" standalone="no"?>
<!DOCTYPE svg PUBLIC "-//W3C//DTD SVG 20010904//EN"
 "http://www.w3.org/TR/2001/REC-SVG-20010904/DTD/svg10.dtd">
<svg version="1.0" xmlns="http://www.w3.org/2000/svg"
 width="96.000000pt" height="96.000000pt" viewBox="0 0 96.000000 96.000000"
 preserveAspectRatio="xMidYMid meet">

<g transform="translate(0.000000,96.000000) scale(0.100000,-0.100000)"
fill="#000000" stroke="none">
<path d="M179 852 c-83 -43 -145 -150 -137 -235 3 -32 3 -32 54 -29 29 2 78
-4 109 -14 72 -20 125 -14 170 21 38 28 43 46 21 64 -11 9 -22 6 -51 -14 -44
-29 -62 -30 -129 -10 -27 8 -62 15 -78 15 -34 0 -36 15 -8 69 34 69 109 112
167 98 14 -3 11 -7 -17 -20 -54 -25 -83 -51 -78 -73 5 -28 36 -29 65 -2 20 19
35 23 86 23 61 0 62 -1 79 -35 14 -26 18 -60 18 -132 l0 -97 -132 -3 c-131 -3
-133 -3 -136 -26 -3 -17 2 -25 17 -29 25 -6 27 -13 42 -163 19 -191 30 -200
239 -200 209 0 220 9 239 200 15 150 17 157 42 163 15 4 20 12 17 29 -3 23 -5
23 -135 26 l-133 3 0 97 c0 72 4 106 18 132 17 34 18 35 79 35 51 0 66 -4 86
-23 30 -28 61 -25 65 5 3 18 -8 29 -55 55 -41 23 -53 34 -39 36 60 12 132 -31
166 -99 28 -54 26 -69 -8 -69 -16 0 -51 -7 -78 -15 -67 -20 -85 -19 -129 10
-29 20 -40 23 -51 14 -22 -18 -17 -36 21 -64 45 -35 98 -41 171 -20 39 11 74
15 106 11 57 -8 62 -1 53 69 -22 177 -219 286 -336 185 -19 -16 -49 -41 -66
-55 l-33 -27 -32 26 c-18 14 -42 35 -53 45 -59 58 -134 66 -216 23z m482 -566
c-9 -77 -22 -140 -30 -150 -20 -24 -282 -24 -302 0 -8 10 -21 73 -30 150 l-15
134 196 0 196 0 -15 -134z"/>
</g>
</svg>
